<svg width="32" height="30" viewBox="0 0 32 30" fill="none" xmlns="http://www.w3.org/2000/svg">
<path fill-rule="evenodd" clip-rule="evenodd" d="M2.50646 27.567C1.12791 27.567 1.28656e-07 26.4391 1.19284e-07 25.0606L5.97072e-08 16.2976L6.30899 16.2976L6.30899 16.288L10.101 16.288C11.0785 16.2629 11.9057 15.4107 11.9057 14.4081C11.9057 13.3805 11.0535 12.5283 10.0258 12.5283L5.01292 12.5283L5.01292 12.5298L3.40912e-08 12.5298L1.70405e-08 10.0218C7.66823e-09 8.64329 1.12791 7.51538 2.50646 7.51538L10.0258 7.51538C11.9307 7.51538 13.5599 8.19212 14.8884 9.54561C16.2418 10.874 16.9186 12.5032 16.9186 14.4081C16.9186 16.288 16.2669 17.9172 14.9385 19.2456C13.6101 20.574 12.0059 21.2758 10.1261 21.3009L5.01292 21.3009L5.01292 25.0606C5.01292 26.4391 3.88501 27.567 2.50646 27.567Z" fill="#02BC6B"/>
<path fill-rule="evenodd" clip-rule="evenodd" d="M20.0779 4.6062C22.8471 7.29591 24.2425 10.6458 24.2425 14.4538C24.2425 18.1978 22.9055 21.5445 20.1791 24.2427L16.3081 20.6006C18.0037 18.9226 18.836 16.9024 18.836 14.4538C18.836 11.9865 17.9787 9.96945 16.2424 8.28303L20.0779 4.6062Z" fill="#02897A"/>
<path fill-rule="evenodd" clip-rule="evenodd" d="M26.0045 -2.51649e-08C29.993 3.98225 32.0001 8.91996 32.0001 14.587C32.0001 20.1656 30.0739 25.1003 26.1509 29.091L22.415 25.4408C25.3373 22.468 26.7692 18.8625 26.7692 14.587C26.7692 10.2687 25.289 6.66621 22.303 3.68493L26.0045 -2.51649e-08Z" fill="#035B81"/>
<path fill-rule="evenodd" clip-rule="evenodd" d="M0 21.3218L5.01292 21.3218L5.01292 25.0606C5.01292 26.4392 3.88501 27.5671 2.50646 27.5671C1.12791 27.5671 3.47914e-08 26.4392 2.54191e-08 25.0606L0 21.3218Z" fill="#028E37"/>
</svg>
