<svg width="120" height="24" viewBox="0 0 120 24" fill="none" xmlns="http://www.w3.org/2000/svg">
<path d="M16.91 8.72C16.91 9.94 16.63 11.06 16.07 12.08C15.51 13.08 14.65 13.89 13.49 14.51C12.33 15.13 10.89 15.44 9.17 15.44H5.99V23H0.86V1.94H9.17C10.85 1.94 12.27 2.23 13.43 2.81C14.59 3.39 15.46 4.19 16.04 5.21C16.62 6.23 16.91 7.4 16.91 8.72ZM8.78 11.36C9.76 11.36 10.49 11.13 10.97 10.67C11.45 10.21 11.69 9.56 11.69 8.72C11.69 7.88 11.45 7.23 10.97 6.77C10.49 6.31 9.76 6.08 8.78 6.08H5.99V11.36H8.78ZM24.7107 9.05C25.3107 8.13 26.0607 7.41 26.9607 6.89C27.8607 6.35 28.8607 6.08 29.9607 6.08V11.51H28.5507C27.2707 11.51 26.3107 11.79 25.6707 12.35C25.0307 12.89 24.7107 13.85 24.7107 15.23V23H19.5807V6.26H24.7107V9.05ZM40.0327 23.24C38.3927 23.24 36.9127 22.89 35.5927 22.19C34.2927 21.49 33.2627 20.49 32.5027 19.19C31.7627 17.89 31.3927 16.37 31.3927 14.63C31.3927 12.91 31.7727 11.4 32.5327 10.1C33.2927 8.78 34.3327 7.77 35.6527 7.07C36.9727 6.37 38.4527 6.02 40.0927 6.02C41.7327 6.02 43.2127 6.37 44.5327 7.07C45.8527 7.77 46.8927 8.78 47.6527 10.1C48.4127 11.4 48.7927 12.91 48.7927 14.63C48.7927 16.35 48.4027 17.87 47.6227 19.19C46.8627 20.49 45.8127 21.49 44.4727 22.19C43.1527 22.89 41.6727 23.24 40.0327 23.24ZM40.0327 18.8C41.0127 18.8 41.8427 18.44 42.5227 17.72C43.2227 17 43.5727 15.97 43.5727 14.63C43.5727 13.29 43.2327 12.26 42.5527 11.54C41.8927 10.82 41.0727 10.46 40.0927 10.46C39.0927 10.46 38.2627 10.82 37.6027 11.54C36.9427 12.24 36.6127 13.27 36.6127 14.63C36.6127 15.97 36.9327 17 37.5727 17.72C38.2327 18.44 39.0527 18.8 40.0327 18.8ZM50.4943 14.6C50.4943 12.88 50.8143 11.37 51.4543 10.07C52.1143 8.77 53.0043 7.77 54.1243 7.07C55.2443 6.37 56.4943 6.02 57.8743 6.02C58.9743 6.02 59.9743 6.25 60.8743 6.71C61.7943 7.17 62.5143 7.79 63.0343 8.57V0.8H68.1643V23H63.0343V20.6C62.5543 21.4 61.8643 22.04 60.9643 22.52C60.0843 23 59.0543 23.24 57.8743 23.24C56.4943 23.24 55.2443 22.89 54.1243 22.19C53.0043 21.47 52.1143 20.46 51.4543 19.16C50.8143 17.84 50.4943 16.32 50.4943 14.6ZM63.0343 14.63C63.0343 13.35 62.6743 12.34 61.9543 11.6C61.2543 10.86 60.3943 10.49 59.3743 10.49C58.3543 10.49 57.4843 10.86 56.7643 11.6C56.0643 12.32 55.7143 13.32 55.7143 14.6C55.7143 15.88 56.0643 16.9 56.7643 17.66C57.4843 18.4 58.3543 18.77 59.3743 18.77C60.3943 18.77 61.2543 18.4 61.9543 17.66C62.6743 16.92 63.0343 15.91 63.0343 14.63ZM88.4056 6.26V23H83.2756V20.72C82.7556 21.46 82.0456 22.06 81.1456 22.52C80.2656 22.96 79.2856 23.18 78.2056 23.18C76.9256 23.18 75.7956 22.9 74.8156 22.34C73.8356 21.76 73.0756 20.93 72.5356 19.85C71.9956 18.77 71.7256 17.5 71.7256 16.04V6.26H76.8256V15.35C76.8256 16.47 77.1156 17.34 77.6956 17.96C78.2756 18.58 79.0556 18.89 80.0356 18.89C81.0356 18.89 81.8256 18.58 82.4056 17.96C82.9856 17.34 83.2756 16.47 83.2756 15.35V6.26H88.4056ZM91.0705 14.63C91.0705 12.89 91.4205 11.37 92.1205 10.07C92.8405 8.77 93.8305 7.77 95.0905 7.07C96.3705 6.37 97.8305 6.02 99.4705 6.02C101.57 6.02 103.32 6.57 104.72 7.67C106.14 8.77 107.07 10.32 107.51 12.32H102.05C101.59 11.04 100.7 10.4 99.3805 10.4C98.4405 10.4 97.6905 10.77 97.1305 11.51C96.5705 12.23 96.2905 13.27 96.2905 14.63C96.2905 15.99 96.5705 17.04 97.1305 17.78C97.6905 18.5 98.4405 18.86 99.3805 18.86C100.7 18.86 101.59 18.22 102.05 16.94H107.51C107.07 18.9 106.14 20.44 104.72 21.56C103.3 22.68 101.55 23.24 99.4705 23.24C97.8305 23.24 96.3705 22.89 95.0905 22.19C93.8305 21.49 92.8405 20.49 92.1205 19.19C91.4205 17.89 91.0705 16.37 91.0705 14.63ZM119.585 18.65V23H116.975C115.115 23 113.665 22.55 112.625 21.65C111.585 20.73 111.065 19.24 111.065 17.18V10.52H109.025V6.26H111.065V2.18H116.195V6.26H119.555V10.52H116.195V17.24C116.195 17.74 116.315 18.1 116.555 18.32C116.795 18.54 117.195 18.65 117.755 18.65H119.585Z" fill="#173A56"/>
</svg>
