<svg width="115" height="22" viewBox="0 0 115 22" fill="none" xmlns="http://www.w3.org/2000/svg">
<path fill-rule="evenodd" clip-rule="evenodd" d="M58.11 5.8752C57.2256 5.3184 56.1682 5.04 54.9377 5.04C53.6112 5.04 52.424 5.3712 51.3762 6.0336C50.3284 6.696 49.5016 7.64639 48.896 8.8848C48.2904 10.1232 47.9876 11.5872 47.9876 13.2768C47.9876 14.9472 48.2904 16.4064 48.896 17.6544C49.5016 18.9024 50.3284 19.8576 51.3762 20.52C52.424 21.1824 53.6112 21.5136 54.9377 21.5136C56.1682 21.5136 57.2256 21.2352 58.11 20.6784C58.9944 20.1216 59.6385 19.3632 60.0422 18.4032V21.312H64.9736V0H60.0422V8.1504C59.6385 7.1904 58.9944 6.432 58.11 5.8752ZM4.93142 21.312V14.1696H7.98832C9.58407 14.1696 10.9395 13.8864 12.0546 13.32C13.1697 12.7536 14.0108 11.976 14.578 10.9872C15.1451 9.9984 15.4287 8.87041 15.4287 7.6032C15.4287 5.56799 14.7943 3.95041 13.5254 2.7504C12.2564 1.55039 10.4108 0.9504 7.98832 0.9504H0V21.312H4.93142ZM10.4108 7.6032C10.4108 9.35041 9.42066 10.224 7.44039 10.224H4.93142V4.9248H7.44039C9.42066 4.9248 10.4108 5.81759 10.4108 7.6032ZM22.7826 8.2656C23.3978 7.2864 24.1909 6.5088 25.1618 5.9328C26.1327 5.3568 27.1853 5.0688 28.3196 5.0688V10.3392H26.9065C25.5992 10.3392 24.585 10.6176 23.864 11.1744C23.1431 11.7312 22.7826 12.672 22.7826 13.9968V21.312H17.8512V5.2416H22.7826V8.2656ZM42.2055 6.0336C40.9462 5.3712 39.5187 5.04 37.9229 5.04C36.3272 5.04 34.8948 5.3712 33.6259 6.0336C32.357 6.696 31.3621 7.65119 30.6411 8.8992C29.9202 10.1472 29.5597 11.6064 29.5597 13.2768C29.5597 14.9472 29.9202 16.4064 30.6411 17.6544C31.3621 18.9024 32.357 19.8576 33.6259 20.52C34.8948 21.1824 36.3272 21.5136 37.9229 21.5136C39.5187 21.5136 40.9462 21.1824 42.2055 20.52C43.4647 19.8576 44.4549 18.9024 45.1758 17.6544C45.8968 16.4064 46.2573 14.9472 46.2573 13.2768C46.2573 11.6064 45.8968 10.1472 45.1758 8.8992C44.4549 7.65119 43.4647 6.696 42.2055 6.0336ZM37.9229 9.3024C36.9808 9.3024 36.1878 9.6432 35.5437 10.3248C34.8996 11.0064 34.5776 11.9904 34.5776 13.2768C34.5776 14.5632 34.8996 15.5424 35.5437 16.2144C36.1878 16.8864 36.9808 17.2224 37.9229 17.2224C38.865 17.2224 39.6532 16.8864 40.2877 16.2144C40.9221 15.5424 41.2394 14.5632 41.2394 13.2768C41.2394 11.9904 40.9221 11.0064 40.2877 10.3248C39.6532 9.6432 38.865 9.3024 37.9229 9.3024ZM56.5239 9.36C55.4664 9.36 54.6157 9.7056 53.9716 10.3968C53.3276 11.088 53.0055 12.048 53.0055 13.2768C53.0055 14.5056 53.3276 15.4656 53.9716 16.1568C54.6157 16.848 55.4664 17.1936 56.5239 17.1936C57.5621 17.1936 58.4128 16.8384 59.0761 16.128C59.7394 15.4176 60.071 14.4672 60.071 13.2768C60.071 12.0672 59.7394 11.112 59.0761 10.4112C58.4128 9.7104 57.5621 9.36 56.5239 9.36ZM79.4218 21.312H84.3821V5.2416H79.4218V13.7664C79.4218 14.9376 79.1334 15.84 78.5566 16.4736C77.9799 17.1072 77.1916 17.424 76.1919 17.424C75.2306 17.424 74.4664 17.1216 73.8992 16.5168C73.332 15.912 73.0485 15.0624 73.0485 13.968V5.2416H68.1459V14.5728C68.1459 16.7232 68.689 18.4128 69.7753 19.6416C70.8615 20.8704 72.3275 21.4848 74.1732 21.4848C75.3844 21.4848 76.4466 21.2064 77.3598 20.6496C78.2731 20.0928 78.9604 19.344 79.4218 18.4032V21.312ZM95.0524 5.04C97.1288 5.04 98.8687 5.61119 100.272 6.7536C101.676 7.89601 102.56 9.46559 102.925 11.4624H97.7055C97.5517 10.7712 97.2345 10.2336 96.7539 9.8496C96.2732 9.4656 95.6676 9.2736 94.937 9.2736C94.0719 9.2736 93.3605 9.6144 92.803 10.296C92.2454 10.9776 91.9666 11.9712 91.9666 13.2768C91.9666 14.5824 92.2454 15.576 92.803 16.2576C93.3605 16.9392 94.0719 17.28 94.937 17.28C95.6676 17.28 96.2732 17.088 96.7539 16.704C97.2345 16.32 97.5517 15.7824 97.7055 15.0912H102.925C102.56 17.088 101.676 18.6576 100.272 19.8C98.8687 20.9424 97.1288 21.5136 95.0524 21.5136C93.4759 21.5136 92.0772 21.1824 90.8564 20.52C89.6355 19.8576 88.679 18.9024 87.9869 17.6544C87.2948 16.4064 86.9487 14.9472 86.9487 13.2768C86.9487 11.5872 87.29 10.1232 87.9725 8.8848C88.655 7.64639 89.6115 6.696 90.8419 6.0336C92.0724 5.3712 93.4759 5.04 95.0524 5.04ZM114.605 21.312V17.0784H113.048C112.433 17.0784 111.995 16.9536 111.736 16.704C111.476 16.4544 111.346 16.0128 111.346 15.3792V9.3888H114.576V5.2416H111.346V1.296H106.415V5.2416H104.252V9.3888H106.415V15.2928C106.415 17.4432 106.939 18.984 107.987 19.9152C109.034 20.8464 110.5 21.312 112.384 21.312H114.605Z" fill="#173A56"/>
</svg>
